<svg width="96" height="27" viewBox="0 0 96 27" fill="none" xmlns="http://www.w3.org/2000/svg">
<g clip-path="url(#clip0_1005_5399)">
<mask id="mask0_1005_5399" style="mask-type:luminance" maskUnits="userSpaceOnUse" x="3" y="3" width="21" height="21">
<path d="M23.1725 3.31055H3.31042V23.1726H23.1725V3.31055Z" fill="white"/>
</mask>
<g mask="url(#mask0_1005_5399)">
<mask id="mask1_1005_5399" style="mask-type:luminance" maskUnits="userSpaceOnUse" x="0" y="0" width="27" height="27">
<path d="M6.52684 0.103166L0.0997314 6.53027L19.9642 26.3948L26.3913 19.9677L6.52684 0.103166Z" fill="white"/>
</mask>
<g mask="url(#mask1_1005_5399)">
<path d="M23.1743 22.5807C23.1743 22.9098 22.9075 23.1765 22.5784 23.1765H13.2432L8.52592 18.4593L3.31213 13.2455V3.91032C3.31213 3.58123 3.57891 3.31445 3.908 3.31445H13.2432L18.5067 8.5779L23.1743 13.2455V22.5807Z" fill="white"/>
</g>
<path fill-rule="evenodd" clip-rule="evenodd" d="M3.63398 12.8076C3.50393 12.7035 3.31128 12.7961 3.31128 12.9627V22.5798C3.31128 22.9089 3.57806 23.1757 3.90714 23.1757H5.79403V23.1752H13.5241C13.6907 23.1752 13.7833 22.9826 13.6792 22.8525L12.2493 21.0652C12.0609 20.8296 11.7756 20.6925 11.4739 20.6925H7.78013H5.79403V15.0129C5.79403 14.7112 5.65689 14.4259 5.42132 14.2374L3.63398 12.8076Z" fill="white"/>
<path fill-rule="evenodd" clip-rule="evenodd" d="M22.8517 13.6854C22.9818 13.7895 23.1744 13.6969 23.1744 13.5303V3.91324C23.1744 3.58416 22.9076 3.31738 22.5786 3.31738H20.6917L12.9616 3.31744C12.795 3.31744 12.7024 3.51008 12.8065 3.64013L14.2363 5.42747C14.4248 5.66306 14.7101 5.8002 15.0118 5.8002H20.6917V11.4801C20.6917 11.7818 20.8287 12.0671 21.0644 12.2556L22.8517 13.6854Z" fill="white"/>
</g>
</g>
<path d="M41.4673 13.5042C41.4673 14.8515 41.2097 15.9976 40.6943 16.9427C40.183 17.8878 39.4851 18.6097 38.6005 19.1084C37.72 19.6031 36.7299 19.8504 35.6302 19.8504C34.5224 19.8504 33.5283 19.6011 32.6477 19.1024C31.7672 18.6037 31.0713 17.8818 30.56 16.9367C30.0487 15.9916 29.7931 14.8474 29.7931 13.5042C29.7931 12.1569 30.0487 11.0108 30.56 10.0657C31.0713 9.12057 31.7672 8.40069 32.6477 7.90602C33.5283 7.40733 34.5224 7.15799 35.6302 7.15799C36.7299 7.15799 37.72 7.40733 38.6005 7.90602C39.4851 8.40069 40.183 9.12057 40.6943 10.0657C41.2097 11.0108 41.4673 12.1569 41.4673 13.5042ZM38.7953 13.5042C38.7953 12.6315 38.6634 11.8955 38.3996 11.2963C38.1399 10.6971 37.7727 10.2426 37.298 9.93295C36.8232 9.62328 36.2673 9.46844 35.6302 9.46844C34.9931 9.46844 34.4372 9.62328 33.9625 9.93295C33.4877 10.2426 33.1184 10.6971 32.8547 11.2963C32.595 11.8955 32.4651 12.6315 32.4651 13.5042C32.4651 14.3769 32.595 15.1129 32.8547 15.7121C33.1184 16.3113 33.4877 16.7658 33.9625 17.0755C34.4372 17.3851 34.9931 17.54 35.6302 17.54C36.2673 17.54 36.8232 17.3851 37.298 17.0755C37.7727 16.7658 38.1399 16.3113 38.3996 15.7121C38.6634 15.1129 38.7953 14.3769 38.7953 13.5042Z" fill="white"/>
<path d="M51.1497 13.0578L48.7759 13.2026C48.7353 13.0015 48.6481 12.8205 48.5142 12.6596C48.3803 12.4948 48.2037 12.3641 47.9846 12.2675C47.7696 12.167 47.5119 12.1167 47.2116 12.1167C46.8099 12.1167 46.4711 12.2012 46.1951 12.3701C45.9192 12.535 45.7812 12.7562 45.7812 13.0337C45.7812 13.2549 45.8705 13.4419 46.0491 13.5947C46.2276 13.7475 46.534 13.8702 46.9681 13.9627L48.6602 14.3005C49.5692 14.4855 50.2468 14.7831 50.6932 15.1933C51.1395 15.6035 51.3627 16.1424 51.3627 16.81C51.3627 17.4173 51.1821 17.9502 50.821 18.4086C50.4639 18.8671 49.9729 19.225 49.348 19.4824C48.7272 19.7358 48.011 19.8625 47.1994 19.8625C45.9618 19.8625 44.9758 19.6071 44.2413 19.0963C43.5109 18.5816 43.0828 17.8818 42.957 16.997L45.5073 16.8643C45.5844 17.2383 45.7711 17.5239 46.0673 17.7209C46.3635 17.914 46.7429 18.0105 47.2055 18.0105C47.66 18.0105 48.0252 17.924 48.3011 17.7511C48.5811 17.5741 48.7231 17.3469 48.7272 17.0694C48.7231 16.8362 48.6237 16.6451 48.4289 16.4963C48.2342 16.3435 47.9339 16.2269 47.5281 16.1464L45.9091 15.8267C44.9961 15.6457 44.3164 15.3321 43.87 14.8856C43.4277 14.4392 43.2066 13.8702 43.2066 13.1784C43.2066 12.5832 43.3689 12.0705 43.6935 11.6402C44.0222 11.2098 44.4828 10.878 45.0752 10.6448C45.6717 10.4115 46.3696 10.2949 47.169 10.2949C48.3498 10.2949 49.2791 10.5422 49.9567 11.0369C50.6384 11.5316 51.0361 12.2052 51.1497 13.0578Z" fill="white"/>
<path d="M58.0231 10.4155V12.346H52.2529V10.4155H58.0231ZM53.5737 19.6815V9.74594C53.5737 9.07432 53.7056 8.51732 53.9693 8.07493C54.2371 7.63255 54.6023 7.30076 55.0649 7.07957C55.5275 6.85837 56.053 6.74778 56.6414 6.74778C57.039 6.74778 57.4022 6.77794 57.7309 6.83826C58.0636 6.89859 58.3112 6.95288 58.4735 7.00114L58.0109 8.93155C57.9094 8.89938 57.7836 8.86921 57.6335 8.84106C57.4874 8.81291 57.3373 8.79883 57.1831 8.79883C56.8017 8.79883 56.5359 8.88731 56.3857 9.06426C56.2356 9.2372 56.1605 9.48051 56.1605 9.7942V19.6815H53.5737Z" fill="white"/>
<path d="M59.6071 19.6815V10.4155H62.2V19.6815H59.6071ZM60.9097 9.22111C60.5242 9.22111 60.1935 9.09443 59.9175 8.84106C59.6457 8.58367 59.5097 8.27602 59.5097 7.91809C59.5097 7.56418 59.6457 7.26054 59.9175 7.00718C60.1935 6.74979 60.5242 6.62109 60.9097 6.62109C61.2951 6.62109 61.6238 6.74979 61.8957 7.00718C62.1716 7.26054 62.3096 7.56418 62.3096 7.91809C62.3096 8.27602 62.1716 8.58367 61.8957 8.84106C61.6238 9.09443 61.2951 9.22111 60.9097 9.22111Z" fill="white"/>
<path d="M66.87 14.3246V19.6815H64.2771V10.4155H66.7483V12.0504H66.8579C67.0648 11.5115 67.4117 11.0852 67.8987 10.7715C68.3856 10.4538 68.976 10.2949 69.6699 10.2949C70.3191 10.2949 70.8852 10.4357 71.3681 10.7172C71.8509 10.9987 72.2263 11.4009 72.4941 11.9237C72.7619 12.4425 72.8958 13.0618 72.8958 13.7817V19.6815H70.3029V14.2402C70.307 13.6731 70.1609 13.2307 69.8647 12.913C69.5684 12.5913 69.1606 12.4304 68.6412 12.4304C68.2923 12.4304 67.9839 12.5048 67.7161 12.6536C67.4523 12.8024 67.2454 13.0196 67.0952 13.3051C66.9492 13.5866 66.8741 13.9265 66.87 14.3246Z" fill="white"/>
<path d="M76.455 19.8383C76.0533 19.8383 75.7084 19.6976 75.4203 19.4161C75.1362 19.1305 74.9942 18.7887 74.9942 18.3905C74.9942 17.9964 75.1362 17.6586 75.4203 17.3771C75.7084 17.0956 76.0533 16.9548 76.455 16.9548C76.8446 16.9548 77.1854 17.0956 77.4776 17.3771C77.7697 17.6586 77.9158 17.9964 77.9158 18.3905C77.9158 18.656 77.8468 18.8993 77.7089 19.1205C77.575 19.3376 77.3984 19.5126 77.1793 19.6453C76.9602 19.774 76.7188 19.8383 76.455 19.8383Z" fill="white"/>
<path d="M82.7106 19.8564C82.1141 19.8564 81.5825 19.7539 81.1159 19.5488C80.6492 19.3397 80.28 19.032 80.0081 18.6258C79.7403 18.2156 79.6064 17.7048 79.6064 17.0935C79.6064 16.5788 79.7017 16.1464 79.8925 15.7966C80.0832 15.4467 80.3429 15.1652 80.6715 14.952C81.0002 14.7389 81.3735 14.578 81.7915 14.4694C82.2135 14.3608 82.6558 14.2844 83.1184 14.2402C83.6621 14.1839 84.1004 14.1316 84.4331 14.0833C84.7658 14.031 85.0073 13.9546 85.1574 13.8541C85.3076 13.7535 85.3826 13.6047 85.3826 13.4077V13.3715C85.3826 12.9894 85.2609 12.6938 85.0174 12.4847C84.778 12.2756 84.4372 12.171 83.9949 12.171C83.5282 12.171 83.1569 12.2736 82.881 12.4787C82.6051 12.6798 82.4225 12.9331 82.3332 13.2388L79.9351 13.0457C80.0568 12.4827 80.2962 11.9961 80.6533 11.5859C81.0104 11.1716 81.4709 10.8539 82.035 10.6327C82.603 10.4075 83.2604 10.2949 84.007 10.2949C84.5264 10.2949 85.0235 10.3552 85.4983 10.4759C85.9771 10.5965 86.4011 10.7835 86.7704 11.0369C87.1437 11.2903 87.4379 11.616 87.653 12.0142C87.868 12.4083 87.9755 12.8808 87.9755 13.4318V19.6815H85.5165V18.3966H85.4435C85.2934 18.6861 85.0925 18.9415 84.8409 19.1627C84.5893 19.3799 84.287 19.5508 83.934 19.6755C83.581 19.7961 83.1732 19.8564 82.7106 19.8564ZM83.4532 18.0829C83.8346 18.0829 84.1714 18.0085 84.4635 17.8597C84.7557 17.7069 84.985 17.5017 85.1513 17.2444C85.3177 16.987 85.4009 16.6954 85.4009 16.3696V15.3863C85.3197 15.4386 85.2081 15.4869 85.0661 15.5311C84.9282 15.5713 84.7719 15.6095 84.5974 15.6457C84.423 15.6779 84.2485 15.7081 84.074 15.7362C83.8995 15.7604 83.7413 15.7825 83.5992 15.8026C83.2949 15.8468 83.0291 15.9172 82.8019 16.0137C82.5746 16.1102 82.3981 16.241 82.2723 16.4058C82.1465 16.5667 82.0836 16.7678 82.0836 17.0091C82.0836 17.359 82.2115 17.6264 82.4671 17.8114C82.7268 17.9924 83.0555 18.0829 83.4532 18.0829Z" fill="white"/>
<path d="M89.9872 19.6815V10.4155H92.5801V19.6815H89.9872ZM91.2897 9.22111C90.9042 9.22111 90.5735 9.09443 90.2976 8.84106C90.0257 8.58367 89.8898 8.27602 89.8898 7.91809C89.8898 7.56418 90.0257 7.26054 90.2976 7.00718C90.5735 6.74979 90.9042 6.62109 91.2897 6.62109C91.6752 6.62109 92.0039 6.74979 92.2758 7.00718C92.5517 7.26054 92.6897 7.56418 92.6897 7.91809C92.6897 8.27602 92.5517 8.58367 92.2758 8.84106C92.0039 9.09443 91.6752 9.22111 91.2897 9.22111Z" fill="white"/>
<defs>
<clipPath id="clip0_1005_5399">
<rect width="19.8621" height="19.8621" fill="white" transform="translate(3.31042 3.31055)"/>
</clipPath>
</defs>
</svg>
